

<svg className='spoon' xmlns="http://www.w3.org/2000/svg" width="24" height="24" viewBox="0 0 24 24">
  <!-- <path d="M50 0C22.4 0 0 22.4 0 50v100c0 27.6 22.4 50 50 50s50-22.4 50-50V50C100 22.4 77.6 0 50 0zm0 180c-22.1 0-40-17.9-40-40V50c0-22.1 17.9-40 40-40s40 17.9 40 40v90c0 22.1-17.9 40-40 40z"/> -->
  <path d="M12 0C5.37 0 0 5.37 0 12v12c0 6.63 5.37 12 12 12s12-5.37 12-12V12C24 5.37 18.63 0 12 0zm0 36c-6.63 0-12-5.37-12-12V12c0-6.63 5.37-12 12-12s12 5.37 12 12v12c0 6.63-5.37 12-12 12z"/>
</svg>